<?xml version="1.0" encoding="utf-8"?>
<svg xmlns="http://www.w3.org/2000/svg" viewBox="3.7557 3.4352 490.1979 491.0069" width="490.198px" height="491.007px">
  <g transform="matrix(1, 0, 0, 1, -170.23287963867188, -11.650919914245605)">
    <path fill="#F7F7F7" opacity="1.000000" stroke="none" d="M 400.226 506.093 C 400.058 505.825 400.17 505.556 400.354 505.076 C 400.987 504.706 401.548 504.548 402.108 504.389 C 401.96 504.072 401.813 503.755 401.665 503.438 C 400.963 503.882 400.26 504.327 399.557 504.771 C 398.308 504.799 397.059 504.828 395.696 504.557 C 395.527 502.857 395.535 501.447 395.342 500.066 C 395.314 499.864 393.9 499.586 393.844 499.699 C 393.214 500.964 392.714 502.295 392.218 503.622 C 392.171 503.75 392.385 503.975 392.478 504.155 C 390.218 503.978 387.958 503.801 385.477 503.361 C 386.993 501.42 386.381 500.302 384.38 499.579 C 382.86 499.029 381.127 498.837 379.822 497.979 C 377.528 496.471 375.961 496.842 374.587 499.075 C 374.397 499.385 373.965 499.545 373.654 499.767 C 371.637 497.56 370.361 499.313 368.985 500.489 C 368.758 500.509 368.531 500.529 368.112 500.239 C 367.296 498.336 366.616 498.59 365.906 499.868 C 365.597 499.887 365.288 499.905 364.829 499.614 C 364.461 496.552 363.094 496.443 360.979 497.614 C 361.415 498.251 361.744 498.733 362.073 499.214 C 357.317 497.956 352.56 496.698 347.814 495.14 C 347.819 494.593 347.815 494.345 347.811 494.097 C 347.534 494.37 347.257 494.643 346.98 494.916 C 338.848 491.983 330.563 489.413 322.615 486.046 C 301.724 477.199 282.542 465.37 264.853 451.216 C 241.107 432.216 221.73 409.428 206.555 383.04 C 194.769 362.545 185.618 340.981 180.502 317.89 C 178.093 307.013 176.529 295.909 175.257 284.83 C 174.267 276.207 173.976 267.464 173.989 258.775 C 174.008 244.499 175.634 230.359 178.097 216.268 C 182.446 191.384 190.749 167.901 202.26 145.52 C 212.776 125.076 225.949 106.545 241.793 89.771 C 262.828 67.5 287.188 50.119 315.019 37.503 C 332.408 29.621 350.484 23.986 369.196 20.03 C 390.081 15.616 411.143 14.473 432.317 15.37 C 463.815 16.704 493.874 24.387 522.569 37.422 C 542.938 46.675 561.449 58.822 578.452 73.321 C 602.99 94.246 622.543 119.132 637.19 147.819 C 647.522 168.054 654.932 189.332 659.297 211.686 C 662.912 230.197 664.604 248.848 664.099 267.67 C 663.749 280.709 662.291 293.64 659.952 306.515 C 655.811 329.314 648.392 350.958 637.918 371.542 C 629.709 387.675 619.604 402.599 608.089 416.601 C 599.017 427.632 589.104 437.799 578.171 446.942 C 567.6 455.783 556.659 464.178 544.619 470.963 C 536.274 475.666 527.735 480.022 518.937 484.4 C 517.843 484.758 517.095 485.249 516.348 485.741 C 515.873 485.958 515.399 486.176 514.576 486.238 C 513.481 486.563 512.734 487.044 511.987 487.525 C 510.749 488.128 509.51 488.732 507.984 489.146 C 507.296 489.274 506.893 489.592 506.491 489.91 C 504.05 490.788 501.609 491.665 498.829 492.271 C 495.589 489.434 492.044 489.1 488.956 491.1 C 489.053 492.197 489.151 493.294 489.055 494.292 C 487.772 493.971 486.147 493.207 485.708 493.642 C 484.807 494.534 484.542 496.067 484.015 497.337 C 483.704 497.361 483.392 497.386 482.829 497.07 C 482.394 496.683 482.209 496.635 482.024 496.588 C 482.29 496.744 482.555 496.9 482.821 497.056 C 482.003 497.399 481.184 497.741 480.062 497.83 C 479.629 497.474 479.499 497.372 479.37 497.269 C 479.43 497.484 479.489 497.698 479.549 497.912 C 476.822 498.777 474.11 499.691 471.363 500.483 C 470.134 500.837 468.833 500.943 467.312 500.884 C 466.31 500.198 465.261 499.259 464.868 499.481 C 463.625 500.183 462.626 501.319 461.534 502.287 C 460.058 502.53 458.583 502.772 456.905 502.763 C 457.469 502.144 458.236 501.776 459.003 501.407 C 458.988 501.153 458.973 500.898 458.959 500.644 C 457.236 500.827 455.492 500.918 453.813 501.294 C 453.563 501.35 453.615 502.751 453.527 503.529 C 451.643 503.768 449.758 504.007 447.674 503.986 C 448.241 502.973 449.753 501.666 449.665 501.546 C 448.532 500.018 447.169 498.659 445.711 497.092 C 444.439 498.165 443.626 498.851 442.814 499.536 C 443.145 499.643 443.475 499.75 443.806 499.857 C 444.19 501.436 444.575 503.014 444.96 504.592 C 443.468 504.681 441.976 504.771 440.175 504.596 C 438.714 504.039 437.562 503.747 436.411 503.455 C 436.884 504.585 437.2 505.339 437.515 506.093 C 436.258 506.093 435 506.093 433.48 505.852 C 432.683 504.474 432.149 503.338 431.615 502.201 C 431.442 502.56 431.269 502.919 431.096 503.277 C 428.97 503.731 426.843 504.184 425.395 504.493 C 426.414 504.889 427.962 505.491 429.509 506.093 C 422.721 506.093 415.934 506.093 408.821 505.906 C 408.225 505.509 407.953 505.298 407.991 505.026 C 411.245 504.964 414.191 504.964 417.137 504.964 C 417.122 504.63 417.107 504.297 417.092 503.963 C 413.927 504.303 410.763 504.643 407.496 505.167 C 406.964 505.598 406.535 505.845 406.105 506.093 C 404.239 506.093 402.372 506.093 400.226 506.093 M 579.665 429.293 C 579.914 429.534 580.164 429.775 580.413 430.016 C 580.499 429.88 580.674 429.637 580.657 429.623 C 580.317 429.338 579.955 429.08 579.612 428.401 C 586.641 420.544 594.046 412.989 600.634 404.778 C 630.348 367.74 647.365 325.62 650.719 278.094 C 652.36 254.848 650.642 231.837 645.467 209.194 C 633.088 155.029 605.236 110.405 561.129 76.47 C 522.225 46.538 477.758 31.213 428.849 28.875 C 406.995 27.83 385.336 30.029 364.023 35.037 C 315.196 46.509 274.528 71.511 242.047 109.621 C 212.066 144.798 194.896 185.761 188.817 231.412 C 186.895 245.84 186.336 260.363 187.346 274.971 C 188.497 291.614 190.804 308.007 195.485 324.029 C 208.887 369.896 234.182 408.011 270.759 438.609 C 293.581 457.7 319.069 472.187 347.43 481.46 C 348.167 481.701 348.757 482.391 349.546 483.149 C 349.619 483.215 349.691 483.28 349.763 483.346 C 349.673 483.184 349.584 483.022 349.927 482.39 C 350.573 482.757 351.219 483.124 352.008 483.767 C 352.084 483.829 352.161 483.89 352.237 483.952 C 352.133 483.795 352.029 483.637 352.449 483.11 C 355.142 483.839 357.835 484.569 360.532 485.776 C 361.352 488.125 362.365 488.308 364.624 486.384 C 365.109 486.538 365.594 486.692 366.089 487.358 C 366.596 487.844 367.103 488.33 367.61 488.816 C 368.017 488.388 368.425 487.96 369.354 487.549 C 369.688 487.837 370.023 488.125 370.487 488.692 C 370.559 488.758 370.631 488.824 370.702 488.89 C 370.614 488.728 370.527 488.566 370.868 487.862 C 371.514 488.011 372.16 488.16 372.902 488.777 C 373.669 489.914 374.435 491.107 375.776 488.81 C 376.236 488.871 376.697 488.931 377.168 489.435 C 377.624 490.306 378.081 491.177 378.537 492.048 C 378.814 491.924 379.091 491.8 379.368 491.676 C 379.247 490.955 379.127 490.235 379.471 489.456 C 379.931 489.512 380.392 489.567 380.866 490.057 C 381.936 491.003 382.87 492.227 384.107 492.83 C 385.935 493.722 387.247 493.159 387.52 490.695 C 389.609 490.944 391.698 491.193 393.797 491.847 C 393.965 492.187 394.133 492.526 394.3 492.866 C 394.558 492.495 394.816 492.125 395.48 491.709 C 395.737 491.793 395.994 491.876 396.259 492.373 C 396.473 492.74 396.686 493.108 396.9 493.475 C 397.094 492.99 397.289 492.505 397.941 491.929 C 398.404 491.962 398.867 491.994 399.287 492.437 C 399.382 492.861 399.421 493.629 399.582 493.655 C 401.241 493.929 402.918 494.165 404.594 494.193 C 404.884 494.198 405.191 493.181 405.947 492.546 C 407.434 492.655 408.921 492.763 410.295 493.219 C 409.933 493.521 409.571 493.823 409.117 494.202 C 417.372 494.202 425.516 494.202 433.78 494.202 C 431.812 493.758 430.001 493.351 428.665 492.76 C 430.999 492.717 433.333 492.673 435.684 493.088 C 436.322 495.749 438.128 493.104 439.085 493.819 C 442.383 496.281 445.848 493.699 449.263 494.197 C 451.572 494.533 454.088 493.446 456.667 492.967 C 456.367 491.734 456.18 490.965 456.445 490.083 C 456.91 490.091 457.375 490.099 457.909 490.502 C 458.469 490.733 459.028 490.964 459.587 491.195 C 459.621 490.657 459.655 490.119 460.169 489.466 C 461.446 489.285 462.722 489.103 464.103 489.359 C 465.706 490.01 467.31 490.661 469.208 491.431 C 469.583 489.998 469.893 488.816 470.591 487.288 C 471.268 487.197 471.944 487.105 472.695 487.409 C 472.91 487.566 473.125 487.723 473.34 487.879 C 473.432 487.435 473.524 486.992 474.035 486.4 C 474.329 486.407 474.623 486.413 475.121 486.899 C 477.724 487.967 480.426 486.895 481.086 484.543 C 481.558 484.434 482.031 484.325 482.534 484.698 C 483.315 485.132 484.097 485.567 485.484 486.338 C 485.189 484.777 485.065 484.123 485.387 483.306 C 486.442 483.019 487.497 482.733 488.62 482.848 C 488.781 483.045 488.942 483.243 489.103 483.44 C 489.367 483 489.631 482.56 490.186 481.948 C 490.726 481.794 491.266 481.64 492.276 481.812 C 493.123 482.09 493.999 482.663 494.811 482.584 C 496.405 482.429 497.383 481.689 496.107 479.734 C 498.738 478.841 501.368 477.947 504.089 477.501 C 506.377 479.329 506.481 477.721 506.881 475.734 C 508.578 474.999 510.275 474.264 512.022 474.031 C 512.398 474.383 512.775 474.736 513.151 475.089 C 513.395 474.306 513.639 473.522 514.111 472.365 C 516.5 471.291 518.888 470.218 521.563 469.462 C 522.046 469.041 522.53 468.62 523.332 467.94 C 537.662 460.681 550.997 451.862 563.782 442.57 C 564.033 442.902 564.284 443.234 564.536 443.566 C 564.42 443.027 564.305 442.489 564.389 441.576 C 569.424 437.358 574.458 433.14 579.665 429.293 M 419.828 503.587 C 420.551 503.972 421.273 504.357 421.996 504.741 C 422.145 504.235 422.293 503.73 422.442 503.224 C 421.656 503.222 420.869 503.221 419.828 503.587 M 464.789 496.555 C 465.516 496.335 466.242 496.114 466.969 495.893 C 466.526 495.422 466.083 494.952 465.64 494.482 C 465.244 495.074 464.848 495.667 464.789 496.555 M 429.789 501.066 C 430.271 500.725 430.752 500.384 431.233 500.043 C 430.907 499.77 430.58 499.497 430.253 499.224 C 429.964 499.798 429.674 500.373 429.789 501.066 M 520.936 481.896 C 521.099 482.067 521.262 482.237 521.424 482.408 C 521.495 482.341 521.566 482.273 521.637 482.206 C 521.474 482.035 521.311 481.864 520.936 481.896 M 461.195 494.829 C 461.358 495 461.521 495.171 461.684 495.342 C 461.755 495.274 461.825 495.207 461.896 495.139 C 461.733 494.969 461.57 494.798 461.195 494.829 M 471.604 499.025 C 471.481 498.993 471.358 498.961 471.235 498.928 C 471.314 499.007 471.393 499.086 471.604 499.025 M 461.237 490.34 C 461.237 490.34 461.272 490.402 461.237 490.34 M 463.123 490.398 C 463.123 490.398 463.061 490.434 463.123 490.398 M 451.363 502.754 C 451.363 502.754 451.327 502.692 451.363 502.754 M 486.429 484.219 C 486.429 484.219 486.492 484.184 486.429 484.219 M 355.862 496.537 C 355.862 496.537 355.925 496.501 355.862 496.537 M 390.449 492.245 C 390.449 492.245 390.387 492.281 390.449 492.245 M 469.282 499.636 C 469.282 499.636 469.22 499.672 469.282 499.636 Z"/>
    <path fill="#F6F6F6" opacity="1.000000" stroke="none" d="M 429.773 506.093 C 427.962 505.491 426.414 504.889 425.395 504.493 C 426.843 504.184 428.97 503.731 431.096 503.277 C 431.269 502.919 431.442 502.56 431.615 502.201 C 432.149 503.338 432.683 504.474 433.211 505.852 C 432.148 506.093 431.092 506.093 429.773 506.093 Z"/>
    <path fill="#F6F6F6" opacity="1.000000" stroke="none" d="M 437.746 506.093 C 437.2 505.339 436.884 504.585 436.411 503.455 C 437.562 503.747 438.714 504.039 439.922 504.551 C 439.623 505.109 439.266 505.449 439.137 505.941 C 438.901 506.093 438.439 506.093 437.746 506.093 Z"/>
    <path fill="#000000" opacity="1.000000" stroke="none" d="M 407.681 505.088 C 407.953 505.298 408.225 505.509 408.533 505.906 C 407.912 506.093 407.255 506.093 406.352 506.093 C 406.535 505.845 406.964 505.598 407.532 505.18 C 407.671 505.011 407.681 505.088 407.681 505.088 Z"/>
    <path fill="#F6F6F6" opacity="1.000000" stroke="none" d="M 369.099 500.6 C 370.361 499.313 371.637 497.56 373.654 499.767 C 373.965 499.545 374.397 499.385 374.587 499.075 C 375.961 496.842 377.528 496.471 379.822 497.979 C 381.127 498.837 382.86 499.029 384.38 499.579 C 386.381 500.302 386.993 501.42 385.211 503.301 C 384.288 503.342 383.409 503.18 382.282 502.8 C 381.845 502.398 381.657 502.213 381.468 502.028 C 381.264 502.309 381.059 502.59 380.855 502.87 C 380.364 502.726 379.873 502.582 379.159 502.18 C 378.344 502.037 377.752 502.153 377.159 502.269 C 376.669 502.12 376.179 501.97 375.472 501.584 C 375.062 501.165 374.869 500.984 374.675 500.802 C 374.477 501.094 374.278 501.385 374.08 501.677 C 373.395 501.52 372.711 501.362 371.794 500.969 C 371.373 500.549 371.183 500.365 370.993 500.182 C 370.79 500.465 370.588 500.749 370.385 501.033 C 369.995 500.925 369.604 500.818 369.099 500.6 Z"/>
    <path fill="#F6F6F6" opacity="1.000000" stroke="none" d="M 489.249 494.391 C 489.151 493.294 489.053 492.197 488.956 491.1 C 492.044 489.1 495.589 489.434 498.576 492.247 C 496.696 493.251 494.732 494.007 492.503 494.617 C 491.243 494.445 490.246 494.418 489.249 494.391 Z"/>
    <path fill="#F6F6F6" opacity="1.000000" stroke="none" d="M 445.208 504.612 C 444.575 503.014 444.19 501.436 443.806 499.857 C 443.475 499.75 443.145 499.643 442.814 499.536 C 443.626 498.851 444.439 498.165 445.711 497.092 C 447.169 498.659 448.532 500.018 449.665 501.546 C 449.753 501.666 448.241 502.973 447.422 503.941 C 446.732 504.313 446.094 504.473 445.208 504.612 Z"/>
    <path fill="#F6F6F6" opacity="1.000000" stroke="none" d="M 392.644 504.206 C 392.385 503.975 392.171 503.75 392.218 503.622 C 392.714 502.295 393.214 500.964 393.844 499.699 C 393.9 499.586 395.314 499.864 395.342 500.066 C 395.535 501.447 395.527 502.857 395.467 504.502 C 394.504 504.583 393.657 504.42 392.644 504.206 Z"/>
    <path fill="#F6F6F6" opacity="1.000000" stroke="none" d="M 484.249 497.297 C 484.542 496.067 484.807 494.534 485.708 493.642 C 486.147 493.207 487.772 493.971 489.054 494.493 C 489.246 495.061 489.244 495.329 489.241 495.596 C 487.655 496.15 486.069 496.703 484.249 497.297 Z"/>
    <path fill="#F6F6F6" opacity="1.000000" stroke="none" d="M 453.752 503.564 C 453.615 502.751 453.563 501.35 453.813 501.294 C 455.492 500.918 457.236 500.827 458.959 500.644 C 458.973 500.898 458.988 501.153 459.003 501.407 C 458.236 501.776 457.469 502.144 456.655 502.718 C 455.731 503.149 454.854 503.374 453.752 503.564 Z"/>
    <path fill="#F6F6F6" opacity="1.000000" stroke="none" d="M 461.747 502.318 C 462.626 501.319 463.625 500.183 464.868 499.481 C 465.261 499.259 466.31 500.198 467.068 500.839 C 466.655 501.258 466.232 501.444 465.513 501.436 C 464.811 501.39 464.405 501.538 463.999 501.686 C 463.319 501.907 462.64 502.128 461.747 502.318 Z"/>
    <path fill="#F6F6F6" opacity="1.000000" stroke="none" d="M 362.248 499.265 C 361.744 498.733 361.415 498.251 360.979 497.614 C 363.094 496.443 364.461 496.552 364.604 499.552 C 363.827 499.639 363.125 499.478 362.248 499.265 Z"/>
    <path fill="#F6F6F6" opacity="1.000000" stroke="none" d="M 512.166 487.568 C 512.734 487.044 513.481 486.563 514.372 486.253 C 513.792 486.82 513.068 487.216 512.166 487.568 Z"/>
    <path fill="#F7F7F7" opacity="1.000000" stroke="none" d="M 489.473 495.611 C 489.244 495.329 489.246 495.061 489.249 494.592 C 490.246 494.418 491.243 494.445 492.284 494.663 C 491.454 495.111 490.579 495.368 489.473 495.611 Z"/>
    <path fill="#F6F6F6" opacity="1.000000" stroke="none" d="M 399.626 504.792 C 400.26 504.327 400.963 503.882 401.665 503.438 C 401.813 503.755 401.96 504.072 402.108 504.389 C 401.548 504.548 400.987 504.706 400.199 504.862 C 399.972 504.861 399.696 504.814 399.626 504.792 Z"/>
    <path fill="#F6F6F6" opacity="1.000000" stroke="none" d="M 366.031 499.967 C 366.616 498.59 367.296 498.336 367.947 500.191 C 367.368 500.324 366.763 500.195 366.031 499.967 Z"/>
    <path fill="#F6F6F6" opacity="1.000000" stroke="none" d="M 516.555 485.745 C 517.095 485.249 517.843 484.758 518.707 484.417 C 518.137 484.962 517.449 485.356 516.555 485.745 Z"/>
    <path fill="#F7F7F7" opacity="1.000000" stroke="none" d="M 377.385 502.331 C 377.752 502.153 378.344 502.037 378.971 502.114 C 378.541 502.336 378.076 502.364 377.385 502.331 Z"/>
    <path fill="#F6F6F6" opacity="1.000000" stroke="none" d="M 506.64 489.915 C 506.893 489.592 507.296 489.274 507.754 489.153 C 507.47 489.54 507.129 489.73 506.64 489.915 Z"/>
    <path fill="#F7F7F7" opacity="1.000000" stroke="none" d="M 381.054 502.937 C 381.059 502.59 381.264 502.309 381.468 502.028 C 381.657 502.213 381.845 502.398 382.059 502.753 C 381.808 502.95 381.531 502.976 381.054 502.937 Z"/>
    <path fill="#F7F7F7" opacity="1.000000" stroke="none" d="M 464.166 501.732 C 464.405 501.538 464.811 501.39 465.281 501.43 C 465.008 501.671 464.671 501.724 464.166 501.732 Z"/>
    <path fill="#F7F7F7" opacity="1.000000" stroke="none" d="M 374.283 501.728 C 374.278 501.385 374.477 501.094 374.675 500.802 C 374.869 500.984 375.062 501.165 375.283 501.518 C 375.035 501.72 374.76 501.75 374.283 501.728 Z"/>
    <path fill="#F7F7F7" opacity="1.000000" stroke="none" d="M 370.585 501.096 C 370.588 500.749 370.79 500.465 370.993 500.182 C 371.183 500.365 371.373 500.549 371.589 500.903 C 371.338 501.102 371.062 501.131 370.585 501.096 Z"/>
    <path fill="#F6F6F6" opacity="1.000000" stroke="none" d="M 347.119 494.963 C 347.257 494.643 347.534 494.37 347.811 494.097 C 347.815 494.345 347.819 494.593 347.687 494.934 C 347.55 495.028 347.257 495.01 347.119 494.963 Z"/>
    <path fill="#F6F6F6" opacity="1.000000" stroke="none" d="M 482.827 497.031 C 482.555 496.9 482.29 496.744 482.024 496.588 C 482.209 496.635 482.394 496.683 482.726 496.853 C 482.873 496.976 482.832 497.006 482.827 497.031 Z"/>
    <path fill="#F6F6F6" opacity="1.000000" stroke="none" d="M 479.562 497.883 C 479.489 497.698 479.43 497.484 479.37 497.269 C 479.499 497.372 479.629 497.474 479.712 497.771 C 479.665 497.965 479.576 497.854 479.562 497.883 Z"/>
    <path fill="#020202" opacity="1.000000" stroke="none" d="M 563.772 442.163 C 550.997 451.862 537.662 460.681 522.983 468.14 C 522.181 468.608 521.729 468.876 521.277 469.145 C 518.888 470.218 516.5 471.291 513.821 472.577 C 513.012 473.035 512.492 473.282 511.972 473.529 C 510.275 474.264 508.578 474.999 506.483 475.839 C 505.389 476.313 504.694 476.683 503.999 477.053 C 501.368 477.947 498.738 478.841 495.728 479.944 C 494.168 480.598 492.987 481.042 491.806 481.486 C 491.266 481.64 490.726 481.794 489.893 482.006 C 489.251 482.192 488.901 482.319 488.552 482.446 C 487.497 482.733 486.442 483.019 484.977 483.396 C 483.879 483.73 483.191 483.973 482.503 484.216 C 482.031 484.325 481.558 484.434 480.637 484.654 C 478.431 485.316 476.674 485.868 474.918 486.42 C 474.623 486.413 474.329 486.407 473.635 486.484 C 473.03 486.717 472.825 486.865 472.621 487.013 C 471.944 487.105 471.268 487.197 470.302 487.437 C 469.034 487.823 468.055 488.06 466.87 488.265 C 466.391 488.278 466.119 488.323 465.651 488.349 C 464.969 488.527 464.484 488.724 463.998 488.921 C 462.722 489.103 461.446 489.285 459.733 489.497 C 458.812 489.721 458.325 489.914 457.839 490.107 C 457.375 490.099 456.91 490.091 456.007 490.112 C 454.888 490.35 454.208 490.559 453.297 490.729 C 452.605 490.733 452.143 490.775 451.431 490.797 C 448.473 491.188 445.765 491.598 442.828 491.967 C 442.136 491.962 441.674 491.997 440.966 491.996 C 439.036 492.183 437.351 492.407 435.667 492.63 C 433.333 492.673 430.999 492.717 428.15 492.789 C 421.892 492.836 416.149 492.854 410.407 492.872 C 408.921 492.763 407.434 492.655 405.505 492.543 C 403.152 492.369 401.241 492.198 399.33 492.026 C 398.867 491.994 398.404 491.962 397.51 491.924 C 396.803 491.932 396.527 491.946 396.251 491.96 C 395.994 491.876 395.737 491.793 395.153 491.606 C 394.479 491.482 394.133 491.462 393.786 491.442 C 391.698 491.193 389.609 490.944 387.067 490.661 C 385.925 490.491 385.237 490.355 384.349 490.154 C 383.872 490.116 383.595 490.143 383.114 490.112 C 382.223 489.91 381.538 489.767 380.852 489.623 C 380.392 489.567 379.931 489.512 379.068 489.389 C 378.162 489.211 377.659 489.101 377.157 488.991 C 376.697 488.931 376.236 488.871 375.391 488.717 C 374.273 488.519 373.54 488.414 372.806 488.309 C 372.16 488.16 371.514 488.011 370.635 488.147 C 370.402 488.431 370.358 488.414 370.358 488.414 C 370.023 488.125 369.688 487.837 368.996 487.401 C 367.785 487.118 366.932 486.982 366.079 486.846 C 365.594 486.692 365.109 486.538 364.232 486.309 C 362.736 485.922 361.632 485.61 360.528 485.298 C 357.835 484.569 355.142 483.839 352.174 483.31 C 351.9 483.51 351.865 483.492 351.865 483.492 C 351.219 483.124 350.573 482.757 349.693 482.639 C 349.458 482.889 349.415 482.871 349.415 482.871 C 348.757 482.391 348.167 481.701 347.43 481.46 C 319.069 472.187 293.581 457.7 270.759 438.609 C 234.182 408.011 208.887 369.896 195.485 324.029 C 190.804 308.007 188.497 291.614 187.346 274.971 C 186.336 260.363 186.895 245.84 188.817 231.412 C 194.896 185.761 212.066 144.798 242.047 109.621 C 274.528 71.511 315.196 46.509 364.023 35.037 C 385.336 30.029 406.995 27.83 428.849 28.875 C 477.758 31.213 522.225 46.538 561.129 76.47 C 605.236 110.405 633.088 155.029 645.467 209.194 C 650.642 231.837 652.36 254.848 650.719 278.094 C 647.365 325.62 630.348 367.74 600.634 404.778 C 594.046 412.989 586.641 420.544 579.591 428.647 C 579.569 428.894 579.492 428.922 579.492 428.922 C 574.458 433.14 569.424 437.358 564.162 441.771 C 563.935 441.966 563.772 442.163 563.772 442.163 M 316.352 199.29 C 316.268 199.793 316.225 200.306 316.095 200.797 C 313.936 208.932 312.625 217.085 313.529 225.61 C 314.025 230.276 314.685 235.206 312.132 239.722 C 305.577 251.312 299.03 262.906 292.594 274.562 C 291.085 277.293 289.695 280.175 288.823 283.156 C 286.483 291.156 290.548 303.542 301.509 305.361 C 304.901 305.924 308.294 306.482 311.824 307.065 C 311.533 309.249 310.992 311.566 310.963 313.89 C 310.908 318.143 310.369 322.623 311.494 326.594 C 312.674 330.757 315.208 334.477 314.422 339.164 C 314.247 340.21 314.965 341.542 315.576 342.56 C 318.256 347.025 318.225 351.766 317.688 356.759 C 316.449 368.278 319.756 377.933 329.205 385.414 C 338.318 392.629 348.46 392.55 359.14 391.333 C 368.383 390.28 377.684 389.667 386.975 389.127 C 391.502 388.864 393.074 390.57 393.217 395.068 C 393.447 402.348 393.421 409.642 393.897 416.904 C 394 418.477 395.427 420.547 396.835 421.345 C 401.86 424.195 406.821 420.215 406.668 413.676 C 406.5 406.495 406.327 399.314 406.102 392.135 C 405.786 382.009 397.066 374.087 387.012 374.999 C 375.702 376.025 364.41 377.259 353.115 378.451 C 345.422 379.263 338.754 377.508 333.657 371.253 C 329.869 366.606 330.153 361.21 330.512 355.771 C 330.955 349.047 330.238 342.542 327.233 336.391 C 326.848 335.603 326.727 334.451 326.985 333.625 C 327.956 330.521 327.967 327.972 325.493 325.228 C 323.99 323.562 323.26 320.665 323.236 318.31 C 323.185 313.413 324.017 308.513 324.153 303.606 C 324.328 297.241 320.249 293.123 313.819 292.793 C 311.155 292.656 308.483 292.637 305.826 292.425 C 302.468 292.157 300.653 289.686 301.574 286.466 C 302.099 284.633 302.93 282.848 303.868 281.179 C 309.992 270.287 315.893 259.254 322.456 248.631 C 326.773 241.643 327.777 234.406 327.46 226.445 C 327.205 220.069 327.248 213.447 328.664 207.28 C 334.413 182.239 346.755 161.022 367.67 145.598 C 393.033 126.894 421.58 119.468 452.938 122.983 C 467.964 124.667 482.132 129.026 495.283 136.535 C 526.1 154.129 543.689 180.898 549.482 215.571 C 551.585 228.162 551.116 240.859 549.016 253.493 C 545.982 271.75 539.157 288.343 526.584 302.028 C 516.471 313.034 511.893 325.692 511.996 340.438 C 512.133 359.937 512.029 379.439 512.036 398.939 C 512.038 403.369 514.73 406.299 518.785 406.324 C 522.772 406.349 524.937 403.72 524.981 398.917 C 525.172 378.189 525.332 357.46 525.608 336.732 C 525.728 327.754 529.005 320.053 534.675 312.991 C 540.468 305.778 546.31 298.382 550.67 290.28 C 564.554 264.486 567.3 236.873 561.943 208.339 C 556.016 176.767 539.997 151.156 514.255 132.231 C 484.329 110.23 450.312 103.825 414.137 110.313 C 385.225 115.498 360.489 128.98 341.346 151.756 C 329.677 165.64 321.424 181.351 316.352 199.29 M 429.963 231.541 C 430.052 236.129 429.406 240.875 430.355 245.278 C 435.016 266.922 447.863 280.881 469.875 285.647 C 472.532 286.222 473.358 287.327 473.309 290.13 C 473.023 306.649 473.053 323.173 472.827 339.694 C 472.696 349.313 472.311 358.93 471.983 368.546 C 471.872 371.818 471.382 375.087 471.437 378.351 C 471.499 382.007 474.884 385.266 478.045 385.142 C 481.145 385.021 483.507 382.147 483.713 378.303 C 483.811 376.467 483.965 374.634 484.129 372.802 C 484.804 365.275 485.944 357.757 486.088 350.22 C 486.477 330.008 486.469 309.788 486.538 289.571 C 486.546 287.202 487.03 286.105 489.703 285.478 C 515.585 279.398 531.311 254.899 527.281 229.36 C 522.9 201.598 496.862 182.086 468.876 187.746 C 447.447 192.079 432.152 211.049 429.963 231.541 Z"/>
    <path fill="#F6F6F6" opacity="1.000000" stroke="none" d="M 435.675 492.859 C 437.351 492.407 439.036 492.183 441.003 492.189 C 441.876 492.282 442.467 492.145 443.058 492.008 C 445.765 491.598 448.473 491.188 451.47 490.99 C 452.349 491.058 452.938 490.913 453.528 490.767 C 454.208 490.559 454.888 490.35 455.781 490.168 C 456.18 490.965 456.367 491.734 456.667 492.967 C 454.088 493.446 451.572 494.533 449.263 494.197 C 445.848 493.699 442.383 496.281 439.085 493.819 C 438.128 493.104 436.322 495.749 435.675 492.859 Z"/>
    <path fill="#F6F6F6" opacity="1.000000" stroke="none" d="M 410.351 493.045 C 416.149 492.854 421.892 492.836 427.912 492.881 C 430.001 493.351 431.812 493.758 433.78 494.202 C 425.516 494.202 417.372 494.202 409.117 494.202 C 409.571 493.823 409.933 493.521 410.351 493.045 Z"/>
    <path fill="#F6F6F6" opacity="1.000000" stroke="none" d="M 380.859 489.84 C 381.538 489.767 382.223 489.91 383.14 490.282 C 383.559 490.695 383.748 490.88 383.937 491.064 C 384.141 490.783 384.345 490.501 384.549 490.219 C 385.237 490.355 385.925 490.491 386.813 490.7 C 387.247 493.159 385.935 493.722 384.107 492.83 C 382.87 492.227 381.936 491.003 380.859 489.84 Z"/>
    <path fill="#F6F6F6" opacity="1.000000" stroke="none" d="M 467.077 488.297 C 468.055 488.06 469.034 487.823 470.107 487.61 C 469.893 488.816 469.583 489.998 469.208 491.431 C 467.31 490.661 465.706 490.01 464.05 489.14 C 464.484 488.724 464.969 488.527 465.682 488.519 C 466.113 488.875 466.316 489.043 466.519 489.21 C 466.705 488.906 466.891 488.601 467.077 488.297 Z"/>
    <path fill="#F6F6F6" opacity="1.000000" stroke="none" d="M 475.019 486.659 C 476.674 485.868 478.431 485.316 480.409 484.739 C 480.426 486.895 477.724 487.967 475.019 486.659 Z"/>
    <path fill="#F6F6F6" opacity="1.000000" stroke="none" d="M 399.308 492.231 C 401.241 492.198 403.152 492.369 405.277 492.589 C 405.191 493.181 404.884 494.198 404.594 494.193 C 402.918 494.165 401.241 493.929 399.582 493.655 C 399.421 493.629 399.382 492.861 399.308 492.231 Z"/>
    <path fill="#F6F6F6" opacity="1.000000" stroke="none" d="M 492.041 481.649 C 492.987 481.042 494.168 480.598 495.568 480.131 C 497.383 481.689 496.405 482.429 494.811 482.584 C 493.999 482.663 493.123 482.09 492.041 481.649 Z"/>
    <path fill="#F6F6F6" opacity="1.000000" stroke="none" d="M 360.53 485.537 C 361.632 485.61 362.736 485.922 364.032 486.339 C 362.365 488.308 361.352 488.125 360.53 485.537 Z"/>
    <path fill="#F6F6F6" opacity="1.000000" stroke="none" d="M 419.956 503.403 C 420.869 503.221 421.656 503.222 422.442 503.224 C 422.293 503.73 422.145 504.235 421.996 504.741 C 421.273 504.357 420.551 503.972 419.956 503.403 Z"/>
    <path fill="#F6F6F6" opacity="1.000000" stroke="none" d="M 464.62 496.408 C 464.848 495.667 465.244 495.074 465.64 494.482 C 466.083 494.952 466.526 495.422 466.969 495.893 C 466.242 496.114 465.516 496.335 464.62 496.408 Z"/>
    <path fill="#F6F6F6" opacity="1.000000" stroke="none" d="M 407.634 504.997 C 410.763 504.643 413.927 504.303 417.092 503.963 C 417.107 504.297 417.122 504.63 417.137 504.964 C 414.191 504.964 411.245 504.964 407.991 505.026 C 407.681 505.088 407.671 505.011 407.634 504.997 Z"/>
    <path fill="#F6F6F6" opacity="1.000000" stroke="none" d="M 504.044 477.277 C 504.694 476.683 505.389 476.313 506.289 475.958 C 506.481 477.721 506.377 479.329 504.044 477.277 Z"/>
    <path fill="#F6F6F6" opacity="1.000000" stroke="none" d="M 482.518 484.457 C 483.191 483.973 483.879 483.73 484.754 483.477 C 485.065 484.123 485.189 484.777 485.484 486.338 C 484.097 485.567 483.315 485.132 482.518 484.457 Z"/>
    <path fill="#F6F6F6" opacity="1.000000" stroke="none" d="M 366.084 487.102 C 366.932 486.982 367.785 487.118 368.735 487.394 C 368.425 487.96 368.017 488.388 367.61 488.816 C 367.103 488.33 366.596 487.844 366.084 487.102 Z"/>
    <path fill="#F6F6F6" opacity="1.000000" stroke="none" d="M 377.162 489.213 C 377.659 489.101 378.162 489.211 378.836 489.418 C 379.127 490.235 379.247 490.955 379.368 491.676 C 379.091 491.8 378.814 491.924 378.537 492.048 C 378.081 491.177 377.624 490.306 377.162 489.213 Z"/>
    <path fill="#F6F6F6" opacity="1.000000" stroke="none" d="M 429.587 501.007 C 429.674 500.373 429.964 499.798 430.253 499.224 C 430.58 499.497 430.907 499.77 431.233 500.043 C 430.752 500.384 430.271 500.725 429.587 501.007 Z"/>
    <path fill="#F6F6F6" opacity="1.000000" stroke="none" d="M 511.997 473.78 C 512.492 473.282 513.012 473.035 513.707 472.764 C 513.639 473.522 513.395 474.306 513.151 475.089 C 512.775 474.736 512.398 474.383 511.997 473.78 Z"/>
    <path fill="#F6F6F6" opacity="1.000000" stroke="none" d="M 372.854 488.543 C 373.54 488.414 374.273 488.519 375.159 488.739 C 374.435 491.107 373.669 489.914 372.854 488.543 Z"/>
    <path fill="#F6F6F6" opacity="1.000000" stroke="none" d="M 457.874 490.304 C 458.325 489.914 458.812 489.721 459.493 489.555 C 459.655 490.119 459.621 490.657 459.587 491.195 C 459.028 490.964 458.469 490.733 457.874 490.304 Z"/>
    <path fill="#F6F6F6" opacity="1.000000" stroke="none" d="M 396.255 492.166 C 396.527 491.946 396.803 491.932 397.281 491.969 C 397.289 492.505 397.094 492.99 396.9 493.475 C 396.686 493.108 396.473 492.74 396.255 492.166 Z"/>
    <path fill="#F7F7F7" opacity="1.000000" stroke="none" d="M 563.777 442.367 C 563.772 442.163 563.935 441.966 564.062 441.958 C 564.305 442.489 564.42 443.027 564.536 443.566 C 564.284 443.234 564.033 442.902 563.777 442.367 Z"/>
    <path fill="#F6F6F6" opacity="1.000000" stroke="none" d="M 393.792 491.645 C 394.133 491.462 394.479 491.482 394.95 491.628 C 394.816 492.125 394.558 492.495 394.3 492.866 C 394.133 492.526 393.965 492.187 393.792 491.645 Z"/>
    <path fill="#F6F6F6" opacity="1.000000" stroke="none" d="M 521.42 469.303 C 521.729 468.876 522.181 468.608 522.823 468.27 C 522.53 468.62 522.046 469.041 521.42 469.303 Z"/>
    <path fill="#F6F6F6" opacity="1.000000" stroke="none" d="M 488.586 482.647 C 488.901 482.319 489.251 482.192 489.748 482.092 C 489.631 482.56 489.367 483 489.103 483.44 C 488.942 483.243 488.781 483.045 488.586 482.647 Z"/>
    <path fill="#F7F7F7" opacity="1.000000" stroke="none" d="M 579.584 428.855 C 579.955 429.08 580.317 429.338 580.657 429.623 C 580.674 429.637 580.499 429.88 580.413 430.016 C 580.164 429.775 579.914 429.534 579.579 429.108 C 579.492 428.922 579.569 428.894 579.584 428.855 Z"/>
    <path fill="#F6F6F6" opacity="1.000000" stroke="none" d="M 521.042 481.795 C 521.311 481.864 521.474 482.035 521.637 482.206 C 521.566 482.273 521.495 482.341 521.424 482.408 C 521.262 482.237 521.099 482.067 521.042 481.795 Z"/>
    <path fill="#F6F6F6" opacity="1.000000" stroke="none" d="M 472.658 487.211 C 472.825 486.865 473.03 486.717 473.426 486.558 C 473.524 486.992 473.432 487.435 473.34 487.879 C 473.125 487.723 472.91 487.566 472.658 487.211 Z"/>
    <path fill="#F6F6F6" opacity="1.000000" stroke="none" d="M 461.301 494.728 C 461.57 494.798 461.733 494.969 461.896 495.139 C 461.825 495.207 461.755 495.274 461.684 495.342 C 461.521 495.171 461.358 495 461.301 494.728 Z"/>
    <path fill="#F6F6F6" opacity="1.000000" stroke="none" d="M 471.538 499.095 C 471.393 499.086 471.314 499.007 471.235 498.928 C 471.358 498.961 471.481 498.993 471.538 499.095 Z"/>
    <path fill="#F6F6F6" opacity="1.000000" stroke="none" d="M 461.254 490.371 C 461.272 490.402 461.237 490.34 461.254 490.371 Z"/>
    <path fill="#F6F6F6" opacity="1.000000" stroke="none" d="M 463.092 490.416 C 463.061 490.434 463.123 490.398 463.092 490.416 Z"/>
    <path fill="#F6F6F6" opacity="1.000000" stroke="none" d="M 351.937 483.629 C 351.865 483.492 351.9 483.51 351.912 483.495 C 352.029 483.637 352.133 483.795 352.237 483.952 C 352.161 483.89 352.084 483.829 351.937 483.629 Z"/>
    <path fill="#F6F6F6" opacity="1.000000" stroke="none" d="M 349.481 483.01 C 349.415 482.871 349.458 482.889 349.476 482.875 C 349.584 483.022 349.673 483.184 349.763 483.346 C 349.691 483.28 349.619 483.215 349.481 483.01 Z"/>
    <path fill="#F6F6F6" opacity="1.000000" stroke="none" d="M 451.345 502.723 C 451.327 502.692 451.363 502.754 451.345 502.723 Z"/>
    <path fill="#F6F6F6" opacity="1.000000" stroke="none" d="M 486.461 484.202 C 486.492 484.184 486.429 484.219 486.461 484.202 Z"/>
    <path fill="#F6F6F6" opacity="1.000000" stroke="none" d="M 355.893 496.519 C 355.925 496.501 355.862 496.537 355.893 496.519 Z"/>
    <path fill="#F6F6F6" opacity="1.000000" stroke="none" d="M 370.423 488.553 C 370.358 488.414 370.402 488.431 370.42 488.417 C 370.527 488.566 370.614 488.728 370.702 488.89 C 370.631 488.824 370.559 488.758 370.423 488.553 Z"/>
    <path fill="#F6F6F6" opacity="1.000000" stroke="none" d="M 390.418 492.263 C 390.387 492.281 390.449 492.245 390.418 492.263 Z"/>
    <path fill="#F6F6F6" opacity="1.000000" stroke="none" d="M 469.251 499.654 C 469.22 499.672 469.282 499.636 469.251 499.654 Z"/>
    <path fill="#F7F7F7" opacity="1.000000" stroke="none" d="M 316.48 199.07 C 321.424 181.351 329.677 165.64 341.346 151.756 C 360.489 128.98 385.225 115.498 414.137 110.313 C 450.312 103.825 484.329 110.23 514.255 132.231 C 539.997 151.156 556.016 176.767 561.943 208.339 C 567.3 236.873 564.554 264.486 550.67 290.28 C 546.31 298.382 540.468 305.778 534.675 312.991 C 529.005 320.053 525.728 327.754 525.608 336.732 C 525.332 357.46 525.172 378.189 524.981 398.917 C 524.937 403.72 522.772 406.349 518.785 406.324 C 514.73 406.299 512.038 403.369 512.036 398.939 C 512.029 379.439 512.133 359.937 511.996 340.438 C 511.893 325.692 516.471 313.034 526.584 302.028 C 539.157 288.343 545.982 271.75 549.016 253.493 C 551.116 240.859 551.585 228.162 549.482 215.571 C 543.689 180.898 526.1 154.129 495.283 136.535 C 482.132 129.026 467.964 124.667 452.938 122.983 C 421.58 119.468 393.033 126.894 367.67 145.598 C 346.755 161.022 334.413 182.239 328.664 207.28 C 327.248 213.447 327.205 220.069 327.46 226.445 C 327.777 234.406 326.773 241.643 322.456 248.631 C 315.893 259.254 309.992 270.287 303.868 281.179 C 302.93 282.848 302.099 284.633 301.574 286.466 C 300.653 289.686 302.468 292.157 305.826 292.425 C 308.483 292.637 311.155 292.656 313.819 292.793 C 320.249 293.123 324.328 297.241 324.153 303.606 C 324.017 308.513 323.185 313.413 323.236 318.31 C 323.26 320.665 323.99 323.562 325.493 325.228 C 327.967 327.972 327.956 330.521 326.985 333.625 C 326.727 334.451 326.848 335.603 327.233 336.391 C 330.238 342.542 330.955 349.047 330.512 355.771 C 330.153 361.21 329.869 366.606 333.657 371.253 C 338.754 377.508 345.422 379.263 353.115 378.451 C 364.41 377.259 375.702 376.025 387.012 374.999 C 397.066 374.087 405.786 382.009 406.102 392.135 C 406.327 399.314 406.5 406.495 406.668 413.676 C 406.821 420.215 401.86 424.195 396.835 421.345 C 395.427 420.547 394 418.477 393.897 416.904 C 393.421 409.642 393.447 402.348 393.217 395.068 C 393.074 390.57 391.502 388.864 386.975 389.127 C 377.684 389.667 368.383 390.28 359.14 391.333 C 348.46 392.55 338.318 392.629 329.205 385.414 C 319.756 377.933 316.449 368.278 317.688 356.759 C 318.225 351.766 318.256 347.025 315.576 342.56 C 314.965 341.542 314.247 340.21 314.422 339.164 C 315.208 334.477 312.674 330.757 311.494 326.594 C 310.369 322.623 310.908 318.143 310.963 313.89 C 310.992 311.566 311.533 309.249 311.824 307.065 C 308.294 306.482 304.901 305.924 301.509 305.361 C 290.548 303.542 286.483 291.156 288.823 283.156 C 289.695 280.175 291.085 277.293 292.594 274.562 C 299.03 262.906 305.577 251.312 312.132 239.722 C 314.685 235.206 314.025 230.276 313.529 225.61 C 312.625 217.085 313.936 208.932 316.095 200.797 C 316.225 200.306 316.268 199.793 316.48 199.07 Z"/>
    <path fill="#F6F6F6" opacity="1.000000" stroke="none" d="M 430 231.267 C 432.152 211.049 447.447 192.079 468.876 187.746 C 496.862 182.086 522.9 201.598 527.281 229.36 C 531.311 254.899 515.585 279.398 489.703 285.478 C 487.03 286.105 486.546 287.202 486.538 289.571 C 486.469 309.788 486.477 330.008 486.088 350.22 C 485.944 357.757 484.804 365.275 484.129 372.802 C 483.965 374.634 483.811 376.467 483.713 378.303 C 483.507 382.147 481.145 385.021 478.045 385.142 C 474.884 385.266 471.499 382.007 471.437 378.351 C 471.382 375.087 471.872 371.818 471.983 368.546 C 472.311 358.93 472.696 349.313 472.827 339.694 C 473.053 323.173 473.023 306.649 473.309 290.13 C 473.358 287.327 472.532 286.222 469.875 285.647 C 447.863 280.881 435.016 266.922 430.355 245.278 C 429.406 240.875 430.052 236.129 430 231.267 M 513.374 243.453 C 514.47 237.942 514.193 232.482 512.64 227.099 C 507.817 210.381 490.982 198.749 474.437 201.363 C 459.136 203.78 448.816 212.86 444.677 227.718 C 440.768 241.755 444.501 254.346 455.695 263.882 C 465.661 272.372 477.414 275.139 489.972 270.713 C 502.575 266.272 510.527 257.265 513.374 243.453 Z"/>
    <path fill="#F7F7F7" opacity="1.000000" stroke="none" d="M 442.828 491.967 C 442.467 492.145 441.876 492.282 441.249 492.226 C 441.674 491.997 442.136 491.962 442.828 491.967 Z"/>
    <path fill="#F7F7F7" opacity="1.000000" stroke="none" d="M 453.297 490.729 C 452.938 490.913 452.349 491.058 451.72 491.01 C 452.143 490.775 452.605 490.733 453.297 490.729 Z"/>
    <path fill="#F7F7F7" opacity="1.000000" stroke="none" d="M 466.87 488.265 C 466.891 488.601 466.705 488.906 466.519 489.21 C 466.316 489.043 466.113 488.875 465.878 488.538 C 466.119 488.323 466.391 488.278 466.87 488.265 Z"/>
    <path fill="#F7F7F7" opacity="1.000000" stroke="none" d="M 384.349 490.154 C 384.345 490.501 384.141 490.783 383.937 491.064 C 383.748 490.88 383.559 490.695 383.344 490.34 C 383.595 490.143 383.872 490.116 384.349 490.154 Z"/>
    <path fill="#020303" opacity="1.000000" stroke="none" d="M 513.331 243.718 C 510.527 257.265 502.575 266.272 489.972 270.713 C 477.414 275.139 465.661 272.372 455.695 263.882 C 444.501 254.346 440.768 241.755 444.677 227.718 C 448.816 212.86 459.136 203.78 474.437 201.363 C 490.982 198.749 507.817 210.381 512.64 227.099 C 514.193 232.482 514.47 237.942 513.331 243.718 Z"/>
  </g>
</svg>